<svg width="130" height="31" viewBox="0 0 130 31" fill="none" xmlns="http://www.w3.org/2000/svg">
<path d="M6.01923 3.3771C6.47818 3.01764 7.1608 3.32107 7.18343 3.88229L7.18401 3.91105L7.18398 6.06584L13.3815 6.03645C16.8788 6.13263 19.1615 8.9313 19.1502 11.8328C19.136 14.604 16.878 17.4319 13.3689 17.4954C13.5297 17.5427 13.6457 17.5702 13.717 17.578C13.8149 17.5888 13.9526 17.5891 14.1301 17.579L16.6452 21.5979C17.4278 22.8767 17.6443 24.7696 17.093 26.3388C16.5852 27.7125 15.7433 28.7447 14.5673 29.4352C11.4507 31.3201 7.61885 30.1031 6.05095 27.3048L5.99709 27.2207L1.13409 19.4988C-0.411507 17.0884 -0.436358 14.5984 1.42512 12.7203C1.67654 12.4629 2.22652 12.0352 2.52997 11.8328L0.497186 8.66797C0.299532 8.38194 0.351863 8.00109 0.615048 7.77415L0.434309 7.94032L6.01923 3.3771ZM12.4566 11.1431C13.3512 11.175 13.3174 12.4156 12.423 12.4479L12.3891 12.4485L6.7069 12.4485L6.64852 12.4506C4.95014 12.517 3.81174 12.2061 2.56111 13.5055L2.51824 13.5492C1.15294 14.9439 1.06482 16.8153 2.22106 18.6767L2.28917 18.7846L7.05571 26.4506C8.5889 29.3656 11.9245 29.6216 13.9594 28.2844C14.8222 27.8082 15.6393 26.5766 15.8221 25.8608C16.1916 24.6382 16.1091 23.4782 15.4685 22.2953L12.5553 17.5319H8.14346L12.2088 23.8536C12.4102 24.1657 12.3928 24.5862 12.0857 24.7947L12.058 24.8125C11.7381 25.009 11.3184 24.9235 11.1046 24.6239L11.0863 24.5969L6.39696 17.3282C6.11012 16.8836 6.42114 16.2779 6.84985 16.279L6.879 16.2779L13.218 16.2936H13.2839C15.9497 16.2165 17.7919 14.2325 17.8332 11.9018V11.8709C17.827 9.22351 15.6168 7.37684 13.3557 7.3624L6.62434 7.37539C6.24541 7.37539 5.93634 7.08363 5.92034 6.71784L5.91969 6.68802L5.91966 5.29268L1.87141 8.50284L3.69624 11.1431C3.56948 11.212 3.46349 11.2754 3.37824 11.3335C3.293 11.3916 3.2016 11.4805 3.10403 11.6002C3.25328 11.5105 3.36352 11.4503 3.43474 11.4195C3.7554 11.2807 4.03667 11.2222 4.26981 11.1978C4.60244 11.163 5.03958 11.1425 5.03958 11.1425C5.03958 11.1425 7.50073 11.1425 12.423 11.1425L12.4566 11.1431Z" fill="#004060"/>
<path d="M33.1839 26.7921V18.7071C33.1839 17.0853 33.7668 15.9465 34.9326 15.2907C36.0984 14.6348 37.3563 14.4142 38.7062 14.6288V8.54718C37.4545 8.54718 36.3071 8.85126 35.264 9.45943C34.2209 10.0676 33.5275 10.9441 33.1839 12.0889V8.90493H27.6617V26.7921H33.1839ZM49.9273 27.2852C53.5002 27.2852 56.2047 26.0476 58.0407 23.5722L53.5746 21.0848C52.7062 21.998 51.5153 22.4547 50.0018 22.4547C47.6695 22.4547 46.1808 21.6135 45.5357 19.9312H58.7479C58.8967 19.2583 58.9712 18.5373 58.9712 17.7683C58.9712 15.0526 58.0717 12.7875 56.2729 10.973C54.4741 9.15855 52.2224 8.25132 49.5179 8.25132C46.615 8.25132 44.2393 9.15855 42.3908 10.973C40.5423 12.7875 39.6181 15.0526 39.6181 17.7683C39.6181 20.508 40.5547 22.7791 42.428 24.5816C44.3013 26.384 46.8011 27.2852 49.9273 27.2852ZM53.7023 16.141H45.6976C46.2436 14.1029 47.5964 13.0838 49.7558 13.0838C51.8407 13.0838 53.1562 14.1029 53.7023 16.141ZM72.7682 26.7921L79.6415 8.74442H73.4742L69.6103 20.1867L65.7464 8.74442H59.5791L66.4523 26.7921H72.7682ZM90.1534 27.2852C93.7262 27.2852 96.4307 26.0476 98.2668 23.5722L93.8007 21.0848C92.9323 21.998 91.7413 22.4547 90.2278 22.4547C87.8955 22.4547 86.4068 21.6135 85.7617 19.9312H98.9739C99.1228 19.2583 99.1972 18.5373 99.1972 17.7683C99.1972 15.0526 98.2978 12.7875 96.4989 10.973C94.7001 9.15855 92.4484 8.25132 89.744 8.25132C86.841 8.25132 84.4653 9.15855 82.6168 10.973C80.7684 12.7875 79.8441 15.0526 79.8441 17.7683C79.8441 20.508 80.7808 22.7791 82.654 24.5816C84.5273 26.384 87.0271 27.2852 90.1534 27.2852ZM93.6243 16.141H85.6196C86.1657 14.1029 87.5184 13.0838 89.6778 13.0838C91.7628 13.0838 93.0783 14.1029 93.6243 16.141ZM107.911 26.5949V16.7473C107.911 15.5209 108.221 14.5951 108.84 13.9698C109.459 13.3446 110.301 13.032 111.366 13.032C112.308 13.032 113.082 13.3145 113.688 13.8796C114.295 14.4448 114.599 15.2564 114.599 16.3145V26.5949H120.171V15.5209C120.171 13.1883 119.509 11.3606 118.184 10.038C116.859 8.71539 115.205 8.05407 113.224 8.05407C110.797 8.05407 109.026 8.78753 107.911 10.2544V8.55908H102.338V26.5949H107.911ZM126.606 7.2651C127.536 7.2651 128.328 6.94696 128.982 6.31067C129.661 5.6499 130 4.86678 130 3.96129C130 3.0558 129.667 2.27879 129.001 1.63026C128.334 0.981734 127.536 0.657471 126.606 0.657471C125.675 0.657471 124.877 0.981734 124.211 1.63026C123.544 2.27879 123.211 3.0558 123.211 3.96129C123.211 4.86678 123.544 5.64379 124.211 6.29231C124.877 6.94084 125.675 7.2651 126.606 7.2651ZM129.493 26.7921V8.74442H123.921V26.7921H129.493Z" fill="#004060"/>
</svg>
